<?xml version="1.0" encoding="UTF-8" standalone="no"?>
<svg
   xmlns:dc="http://purl.org/dc/elements/1.1/"
   xmlns:cc="http://creativecommons.org/ns#"
   xmlns:rdf="http://www.w3.org/1999/02/22-rdf-syntax-ns#"
   xmlns:svg="http://www.w3.org/2000/svg"
   xmlns="http://www.w3.org/2000/svg"
   xmlns:sodipodi="http://sodipodi.sourceforge.net/DTD/sodipodi-0.dtd"
   xmlns:inkscape="http://www.inkscape.org/namespaces/inkscape"
   inkscape:version="1.0 (4035a4fb49, 2020-05-01)"
   sodipodi:docname="Marathon Logo.svg"
   viewBox="0 0 613.33331 612"
   height="612"
   width="613.33331"
   id="svg14"
   version="1.1">
  <metadata
     id="metadata20">
    <rdf:RDF>
      <cc:Work
         rdf:about="">
        <dc:format>image/svg+xml</dc:format>
        <dc:type
           rdf:resource="http://purl.org/dc/dcmitype/StillImage" />
        <dc:title></dc:title>
      </cc:Work>
    </rdf:RDF>
  </metadata>
  <defs
     id="defs18" />
  <sodipodi:namedview
     inkscape:current-layer="g22"
     inkscape:window-maximized="1"
     inkscape:window-y="-8"
     inkscape:window-x="-8"
     inkscape:cy="306"
     inkscape:cx="306.66666"
     inkscape:zoom="1.2303922"
     inkscape:pagecheckerboard="true"
     showgrid="false"
     id="namedview16"
     inkscape:window-height="961"
     inkscape:window-width="1280"
     inkscape:pageshadow="2"
     inkscape:pageopacity="0"
     guidetolerance="10"
     gridtolerance="10"
     objecttolerance="10"
     borderopacity="1"
     bordercolor="#666666"
     pagecolor="#ffffff" />
  <g
     id="g22"
     inkscape:label="Image"
     inkscape:groupmode="layer">
    <g
       id="g38">
      <path
         sodipodi:nodetypes="sssssssssssscccccssssssssssscccss"
         id="path40"
         d="M 258.66666,609.96317 C 140.78106,591.46333 44.293866,506.55395 11.454602,392.41489 2.5443764,361.44573 0.67560227,346.41671 0.70940005,306 0.74141057,267.72059 1.6959007,258.7538 8.7395317,230.56243 18.97031,189.61483 39.704549,147.90512 66.610791,114.14663 115.75297,52.489357 188.73647,11.804198 267.94931,1.9090804 285.93102,-0.33715988 322.70659,-0.58805276 341.05253,1.4103504 465.58381,14.975396 569.02921,103.35853 602.62166,224.89345 c 13.87189,50.18743 14.16993,107.89946 0.82681,160.10011 -18.84627,73.72991 -67.82598,140.43787 -133.44849,181.75019 -15.60702,9.82532 -39.96618,21.72757 -58.34437,28.50792 C 389.08257,603.57964 350.12816,612 334.17421,612 h -6.17422 v -96.66667 -96.66666 l 3.66666,-0.001 c 2.01667,-9.6e-4 9.66667,-1.46308 17,-3.24917 77.23017,-18.8104 135.3878,-81.33536 148.90077,-160.08283 2.30063,-13.40702 2.62407,-19.45729 1.99581,-37.33333 -0.77038,-21.92031 -2.604,-33.17132 -8.47042,-51.97451 C 468.41366,93.33386 404.17708,39.306359 328.44656,29.228505 313.50335,27.239936 278.7523,28.397299 265.33332,31.330453 221.72727,40.86198 181.61434,64.510639 154.72327,96.540823 137.57791,116.96282 126.18355,136.67367 118.10219,159.89084 109.75694,183.86613 107.50756,197.47735 107.50756,224 c 0,25.94547 2.34024,40.67116 10.06509,63.33333 16.21701,47.5754 53.39594,90.02532 98.87325,112.89087 13.56757,6.82164 38.54368,15.15277 52.22076,17.41897 l 10.66666,1.76739 0.34211,96.29472 0.34209,96.29472 -5.00876,-0.1292 c -2.75482,-0.071 -10.10877,-0.92943 -16.3421,-1.90763 z"
         style="fill:#000000;stroke-width:1.33333" />
    </g>
    <circle
       r="175"
       cy="222.95219"
       cx="304.22708"
       id="path44"
       style="fill:#000000;stroke:#000000;stroke-width:0" />
  </g>
</svg>
