<?xml version="1.0" standalone="no"?>
<!DOCTYPE svg PUBLIC "-//W3C//DTD SVG 20010904//EN"
 "http://www.w3.org/TR/2001/REC-SVG-20010904/DTD/svg10.dtd">
<svg version="1.0" xmlns="http://www.w3.org/2000/svg"
 width="163.000000pt" height="163.000000pt" viewBox="0 0 163.000000 163.000000"
 preserveAspectRatio="xMidYMid meet">
<metadata>
Created by potrace 1.14, written by Peter Selinger 2001-2017
</metadata>
<g transform="translate(0.000000,163.000000) scale(0.100000,-0.100000)"
fill="#000000" stroke="none">
<path d="M780 1623 c-8 -3 -87 -47 -175 -98 -88 -51 -234 -136 -325 -188 -96
-55 -170 -104 -177 -117 -8 -16 -11 -134 -10 -410 2 -385 2 -389 24 -412 12
-13 39 -32 60 -43 21 -11 40 -22 43 -25 3 -4 21 -14 40 -23 19 -10 53 -28 75
-42 22 -13 76 -45 120 -70 44 -25 87 -50 95 -55 64 -42 247 -140 259 -140 9 0
39 13 66 28 28 16 73 41 100 57 28 15 75 42 105 60 81 48 252 148 275 161 99
54 138 79 154 100 17 22 18 48 18 412 0 342 -2 392 -16 409 -13 16 -233 153
-246 153 -2 0 -32 17 -66 38 -35 22 -84 50 -109 64 -25 14 -90 51 -145 82
-100 57 -137 70 -165 59z"/>
</g>
</svg>
